<svg width="48" height="48" viewBox="0 0 48 48" fill="none" xmlns="http://www.w3.org/2000/svg">
<rect x="2" y="2" width="44" height="44" rx="6" stroke="black" stroke-width="4"/>
<path d="M11.9318 35V17.5455H16.7727V35H11.9318ZM14.3636 15.2955C13.6439 15.2955 13.0265 15.0568 12.5114 14.5795C12.0038 14.0947 11.75 13.5152 11.75 12.8409C11.75 12.1742 12.0038 11.6023 12.5114 11.125C13.0265 10.6402 13.6439 10.3977 14.3636 10.3977C15.0833 10.3977 15.697 10.6402 16.2045 11.125C16.7197 11.6023 16.9773 12.1742 16.9773 12.8409C16.9773 13.5152 16.7197 14.0947 16.2045 14.5795C15.697 15.0568 15.0833 15.2955 14.3636 15.2955ZM25.4915 24.9091V35H20.6506V17.5455H25.2642V20.625H25.4688C25.8551 19.6098 26.5028 18.8068 27.4119 18.2159C28.321 17.6174 29.4233 17.3182 30.7188 17.3182C31.9309 17.3182 32.9877 17.5833 33.8892 18.1136C34.7907 18.6439 35.4915 19.4015 35.9915 20.3864C36.4915 21.3636 36.7415 22.5303 36.7415 23.8864V35H31.9006V24.75C31.9081 23.6818 31.6354 22.8485 31.0824 22.25C30.5294 21.6439 29.768 21.3409 28.7983 21.3409C28.1468 21.3409 27.571 21.4811 27.071 21.7614C26.5786 22.0417 26.1922 22.4508 25.9119 22.9886C25.6392 23.5189 25.4991 24.1591 25.4915 24.9091Z" fill="black"/>
</svg>
