<svg width="48" height="48" viewBox="0 0 48 48" fill="none" xmlns="http://www.w3.org/2000/svg">
<rect x="2" y="2" width="44" height="44" rx="6" stroke="black" stroke-width="4"/>
<path d="M10.0239 14.8333C10.0239 14.3731 10.415 14 10.8974 14H37.1026C37.585 14 37.9761 14.3731 37.9761 14.8333V33.1667C37.9761 33.6269 37.585 34 37.1026 34H10.8974C10.415 34 10.0239 33.6269 10.0239 33.1667V14.8333Z" stroke="black" stroke-width="4"/>
<path d="M23 26C23.6733 26.6069 24.7262 26.6069 25.3995 26L37.4492 16.8782C38.5981 15.8427 37.8299 14 36.2495 14H11.7505C10.1701 14 9.40194 15.8427 10.5508 16.8782L23 26Z" stroke="black" stroke-width="4"/>
<path d="M37.4065 34L27.9065 25" stroke="black" stroke-width="4"/>
<path d="M11 34L20.5 25" stroke="black" stroke-width="4"/>
</svg>
