<svg width="50" height="48" viewBox="0 0 50 48" fill="none" xmlns="http://www.w3.org/2000/svg">
<path d="M3.03752 9.33333C3.03752 8.59695 3.65208 8 4.41018 8H45.5898C46.3479 8 46.9625 8.59695 46.9625 9.33333V38.6667C46.9625 39.403 46.3479 40 45.5898 40H4.41018C3.65208 40 3.03752 39.403 3.03752 38.6667V9.33333Z" stroke="black" stroke-width="4"/>
<path d="M23.4286 27.2C24.4867 28.171 26.1411 28.171 27.1992 27.2L46.1345 12.6051C47.9398 10.9483 46.7327 8 44.2492 8H5.75084C3.26725 8 2.0602 10.9483 3.86551 12.6051L23.4286 27.2Z" stroke="black" stroke-width="4"/>
<path d="M46 40L32 25" stroke="black" stroke-width="4"/>
<path d="M4 40L18 25" stroke="black" stroke-width="4"/>
</svg>
