<svg width="98" height="98" viewBox="0 0 98 98" fill="none" xmlns="http://www.w3.org/2000/svg">
<path d="M97 49.0002V5.00019C97 2.79105 95.2091 1.00018 93 1.00018H49M97 49.0002V93C97 95.2091 95.2091 97 93 97H49M97 49.0002L90.5002 49C88.5002 47 91.0002 43.9342 91.5002 42.5C92.0002 41.0658 89.0002 40.5423 86.5002 40.5C84.0002 40.5423 81.0002 41.0658 81.5002 42.5C82.0002 43.9342 84.5002 47 82.5002 49L49 49.0002M49 1.00018V7.5C47 9.5 43.9342 7 42.5 6.5C41.0658 6 40.5423 9 40.5 11.5C40.5423 14 41.0658 17 42.5 16.5C43.9342 16 47 13.5 49 15.5V49.0002M49 1.00018L5 1C2.79086 1 1 2.79086 1 5V49M49 49.0002L15.4998 49C13.4998 51 15.9998 54.0658 16.4998 55.5C16.9998 56.9342 13.9998 57.4577 11.4998 57.5C8.99982 57.4577 5.99982 56.9342 6.49982 55.5C6.99982 54.0658 9.49982 51 7.49982 49H1M49 49.0002V82.5002C51 84.5002 54.0658 82.0002 55.5 81.5002C56.9342 81.0002 57.4577 84.0002 57.5 86.5002C57.4577 89.0002 56.9342 92.0002 55.5 91.5002C54.0658 91.0002 51 88.5002 49 90.5002V97M1 49V93C1 95.2091 2.79086 97 5 97H49" stroke="black" stroke-linecap="round"/>
</svg>
