<svg width="50" height="50" viewBox="0 0 50 50" fill="none" xmlns="http://www.w3.org/2000/svg">
<path d="M9.03701 7.74048C5.35984 11.7539 2.48032 15.4608 1 23.6693C1 29.7958 2.03265 32.8809 5.94586 37.1477C8.2786 40.1943 9.66934 41.7454 11.5099 45.7247C13.3646 48.7879 16.8601 49.9257 23.2563 48.1753C24.9041 47.7244 25.9508 47.6317 27.584 47.5627C30.8794 47.54 30.5899 47.5626 33.1481 47.5626C42.2191 47.5626 47.3674 42.1552 46.7492 34.8035C46.5004 32.3901 46.5939 30.5103 47.9856 24.3885C49.8781 16.0639 49.7895 11.8689 41.8033 8.35317C40.016 7.50677 38.9127 6.8953 36.8575 5.28993C35.621 4.06458 30.5525 0.92448 24.4928 1.00139C18.4332 1.0783 12.7142 3.72706 9.03701 7.74048Z" fill="#095353" stroke="#658787"/>
<path d="M25.111 44.4981C36.0371 44.4981 44.8945 35.7207 44.8945 24.8933C44.8945 14.0659 36.0371 5.28854 25.111 5.28854C14.185 5.28854 5.32762 14.0659 5.32762 24.8933C5.32762 35.7207 14.185 44.4981 25.111 44.4981Z" fill="#095353" fill-opacity="0.682353" stroke="#98B2B2"/>
<path d="M27.6783 18.4629C27.8893 18.4629 28.0805 18.5348 28.252 18.6786C28.4366 18.8224 28.5289 19.0249 28.5289 19.2863C28.5289 19.3778 28.5157 19.4758 28.4894 19.5804L24.2755 31.7354C24.2227 31.8922 24.1238 32.0164 23.9788 32.1078C23.8469 32.1863 23.7084 32.232 23.5633 32.2451C23.405 32.2451 23.2534 32.2059 23.1083 32.1275C22.9632 32.036 22.8511 31.9053 22.772 31.7354L19.4681 23.815L19.6264 23.8738L16.3423 31.7354C16.2632 31.9053 16.1511 32.036 16.006 32.1275C15.861 32.2059 15.7093 32.2451 15.551 32.2451C15.4059 32.232 15.2609 32.1863 15.1158 32.1078C14.9839 32.0164 14.8916 31.8922 14.8388 31.7354L10.6249 19.5804C10.5986 19.4758 10.5854 19.3844 10.5854 19.3059C10.5854 19.0445 10.6777 18.842 10.8623 18.6982C11.0602 18.5414 11.258 18.4629 11.4558 18.4629C11.6141 18.4629 11.7658 18.5087 11.9109 18.6002C12.0559 18.6917 12.1549 18.8158 12.2076 18.9727L15.9071 29.7945H15.6301L18.8548 21.8938C18.9208 21.7369 19.0197 21.6128 19.1516 21.5213C19.2835 21.4298 19.4352 21.384 19.6066 21.384C19.7649 21.384 19.91 21.4298 20.0419 21.5213C20.1869 21.6128 20.2858 21.7369 20.3386 21.8938L23.4644 29.6769L23.227 29.7749L26.9067 18.9727C26.9595 18.8158 27.0584 18.6917 27.2034 18.6002C27.3485 18.5087 27.5068 18.4629 27.6783 18.4629Z" fill="white"/>
<path d="M31.5951 32.2451C31.3577 32.2451 31.1598 32.1667 31.0016 32.0098C30.8565 31.853 30.7839 31.6635 30.7839 31.4413V19.3059C30.7839 19.0838 30.8565 18.9008 31.0016 18.757C31.1598 18.6002 31.3511 18.5218 31.5753 18.5218H38.5193C38.7435 18.5218 38.9347 18.5936 39.093 18.7374C39.2512 18.8812 39.3304 19.0641 39.3304 19.2863C39.3304 19.4955 39.2512 19.6719 39.093 19.8157C38.9347 19.9594 38.7435 20.0313 38.5193 20.0313H32.2875L32.4062 19.8745V24.6776L32.3073 24.462H37.629C37.8532 24.462 38.0445 24.5404 38.2027 24.6972C38.361 24.841 38.4401 25.024 38.4401 25.2462C38.4401 25.4422 38.361 25.6187 38.2027 25.7755C38.0445 25.9193 37.8532 25.9912 37.629 25.9912H32.2677L32.4062 25.8147V31.4413C32.4062 31.6635 32.327 31.853 32.1688 32.0098C32.0105 32.1667 31.8193 32.2451 31.5951 32.2451Z" fill="white"/>
<path d="M27.6783 18.4629C27.8893 18.4629 28.0805 18.5348 28.252 18.6786C28.4366 18.8224 28.5289 19.0249 28.5289 19.2863C28.5289 19.3778 28.5157 19.4758 28.4894 19.5804L24.2755 31.7354C24.2227 31.8922 24.1238 32.0164 23.9788 32.1078C23.8469 32.1863 23.7084 32.232 23.5633 32.2451C23.405 32.2451 23.2534 32.2059 23.1083 32.1275C22.9632 32.036 22.8511 31.9053 22.772 31.7354L19.4681 23.815L19.6264 23.8738L16.3423 31.7354C16.2632 31.9053 16.1511 32.036 16.006 32.1275C15.861 32.2059 15.7093 32.2451 15.551 32.2451C15.4059 32.232 15.2609 32.1863 15.1158 32.1078C14.9839 32.0164 14.8916 31.8922 14.8388 31.7354L10.6249 19.5804C10.5986 19.4758 10.5854 19.3844 10.5854 19.3059C10.5854 19.0445 10.6777 18.842 10.8623 18.6982C11.0602 18.5414 11.258 18.4629 11.4558 18.4629C11.6141 18.4629 11.7658 18.5087 11.9109 18.6002C12.0559 18.6917 12.1549 18.8158 12.2076 18.9727L15.9071 29.7945H15.6301L18.8548 21.8938C18.9208 21.7369 19.0197 21.6128 19.1516 21.5213C19.2835 21.4298 19.4352 21.384 19.6066 21.384C19.7649 21.384 19.91 21.4298 20.0419 21.5213C20.1869 21.6128 20.2858 21.7369 20.3386 21.8938L23.4644 29.6769L23.227 29.7749L26.9067 18.9727C26.9595 18.8158 27.0584 18.6917 27.2034 18.6002C27.3485 18.5087 27.5068 18.4629 27.6783 18.4629Z" stroke="white"/>
<path d="M31.5951 32.2451C31.3577 32.2451 31.1598 32.1667 31.0016 32.0098C30.8565 31.853 30.7839 31.6635 30.7839 31.4413V19.3059C30.7839 19.0838 30.8565 18.9008 31.0016 18.757C31.1598 18.6002 31.3511 18.5218 31.5753 18.5218H38.5193C38.7435 18.5218 38.9347 18.5936 39.093 18.7374C39.2512 18.8812 39.3304 19.0641 39.3304 19.2863C39.3304 19.4955 39.2512 19.6719 39.093 19.8157C38.9347 19.9594 38.7435 20.0313 38.5193 20.0313H32.2875L32.4062 19.8745V24.6776L32.3073 24.462H37.629C37.8532 24.462 38.0445 24.5404 38.2027 24.6972C38.361 24.841 38.4401 25.024 38.4401 25.2462C38.4401 25.4422 38.361 25.6187 38.2027 25.7755C38.0445 25.9193 37.8532 25.9912 37.629 25.9912H32.2677L32.4062 25.8147V31.4413C32.4062 31.6635 32.327 31.853 32.1688 32.0098C32.0105 32.1667 31.8193 32.2451 31.5951 32.2451Z" stroke="white"/>
</svg>
